<?xml version="1.0" encoding="utf-8"?>
<!-- Generator: Adobe Illustrator 21.0.0, SVG Export Plug-In . SVG Version: 6.00 Build 0)  -->
<svg version="1.1" id="Layer_1" xmlns="http://www.w3.org/2000/svg" xmlns:xlink="http://www.w3.org/1999/xlink" x="0px" y="0px"
	 viewBox="0 0 197 21" style="enable-background:new 0 0 197 21;" xml:space="preserve">
<style type="text/css">
	.st0{filter:url(#Adobe_OpacityMaskFilter);}
	.st1{fill:#FFFFFF;}
	.st2{mask:url(#mask-2);fill:#004499;}
	.st3{fill:#004499;}
	.st4{filter:url(#Adobe_OpacityMaskFilter_1_);}
	.st5{mask:url(#mask-4);fill:#004499;}
</style>
<title>Group</title>
<desc>Created with Sketch.</desc>
<g id="Page-1">
	<g id="Group" transform="translate(0.000000, -1.000000)">
		<g id="Group-3" transform="translate(0.000000, 0.584800)">
			<g id="Fill-1-Clipped">
				<g id="path-1_1_">
				</g>
				<defs>
					<filter id="Adobe_OpacityMaskFilter" filterUnits="userSpaceOnUse" x="0.2" y="0.4" width="5.9" height="20.4">
						<feColorMatrix  type="matrix" values="1 0 0 0 0  0 1 0 0 0  0 0 1 0 0  0 0 0 1 0"/>
					</filter>
				</defs>
				<mask maskUnits="userSpaceOnUse" x="0.2" y="0.4" width="5.9" height="20.4" id="mask-2">
					<g class="st0">
						<polygon id="path-1" class="st1" points="6.1,0.4 0.2,0.4 0.2,20.8 6.1,20.8 						"/>
					</g>
				</mask>
				<path id="Fill-1" class="st2" d="M1.5,4.8c0-1.4,0.2-3.7-1.4-4.3V0.4h5.9v0.1C4.5,1.1,4.7,3.4,4.7,4.8v11.7
					c0,1.4-0.2,3.7,1.4,4.3v0.1H0.2v-0.1c1.5-0.6,1.4-2.9,1.4-4.3L1.5,4.8L1.5,4.8L1.5,4.8z"/>
			</g>
		</g>
		<path id="Fill-4" class="st3" d="M9.8,7.1c0.7,0,1.4,0,2.1-0.4h0.1v2.4c1.1-1.5,2.4-2.4,4.4-2.4c1.7,0,3.7,0.7,4.7,2.1
			c0.9,1.2,0.8,3.2,0.8,4.6V18c0,1.4-0.2,2.5,1.2,3.3v0.1h-5.2v-0.1c1.4-0.8,1.2-1.9,1.2-3.3v-4.2c0-3.3-0.9-5-3.8-5
			c-2.8,0-3.3,1.9-3.3,3.7V18c0,1.4-0.2,2.5,1.2,3.3v0.1H7.9v-0.1c1.4-0.8,1.2-1.9,1.2-3.4v-7.4c0-1.4,0.2-2.6-1.2-3.4V7.1H9.8
			L9.8,7.1L9.8,7.1z"/>
		<path id="Fill-6" class="st3" d="M28.2,15.4c0,1.2-0.4,4.4,2.9,4.4c0.4,0,0.8-0.2,1.2-0.3l-1.6,2.2c-0.3,0.1-0.6,0.2-1,0.2
			c-4.8,0-4.4-5-4.4-6.2V9.2h-2.1V8.1C26.2,7.6,27,5.4,27,2.5h1.2v4.6h2.9c0.4,0,0.9,0,1.2-0.2h0.1v2.8h-0.1
			c-0.5-0.7-1.4-0.6-2.2-0.6h-1.9V15.4L28.2,15.4L28.2,15.4z"/>
		<path id="Fill-8" class="st3" d="M45,12c-0.3-2.2-1.8-3.2-4-3.2c-2.1,0-3.6,1.2-4,3.2H45L45,12z M36.8,13.8c0.1,3.8,2.7,6,6.2,6
			c1.9,0,3.7-0.5,5.1-1.6h0.1L46.7,21c-1.3,0.6-2.8,0.8-4.3,0.8c-5.3,0-8.9-3.3-8.9-7.6c0-4.3,3.1-7.4,7.8-7.4c4.2,0,7.1,3,7,7
			L36.8,13.8L36.8,13.8L36.8,13.8z"/>
		<path id="Fill-10" class="st3" d="M52,7.1c0.7,0,1.5,0,1.9-0.4H54v2.4c0.7-1.4,2.1-2.4,3.7-2.4l1.1,0.1v2.9
			c-0.3-0.4-0.9-0.5-1.4-0.5c-2.4,0-3.4,1.2-3.4,4.4V18c0,1.4-0.2,2.6,1.2,3.4v0.1H50v-0.1c1.4-0.8,1.2-1.9,1.2-3.4v-7.4
			c0-1.4,0.2-2.5-1.2-3.3V7.1L52,7.1L52,7.1L52,7.1z"/>
		<path id="Fill-12" class="st3" d="M63.1,7.1c0.7,0,1.4,0,1.9-0.4h0.1v2.5c1.1-1.7,2.3-2.4,4.4-2.4c2.2,0,3.7,0.9,4.8,2.7
			c1.2-1.7,2.7-2.7,5-2.7c4.4,0,5.6,2.5,5.6,6.5V18c0,1.3-0.2,2.9,1.4,3.4v0.1h-5.4v-0.1c1.4-0.8,1.2-1.9,1.2-3.4v-4
			c0-3.2-1-5.2-3.5-5.2c-2.8,0-3.6,1.8-3.6,4.7V18c0,1.4-0.2,2.6,1.2,3.4v0.1h-5.2v-0.1c1.4-0.8,1.2-1.9,1.2-3.4v-4.3
			c0-3.3-1.6-4.9-3.5-4.9c-2.4,0-3.5,1.5-3.5,4.4V18c0,1.4-0.2,2.5,1.1,3.4v0.1h-5.1v-0.1c1.4-0.8,1.2-1.9,1.2-3.4v-7.4
			c0-1.4,0.2-2.5-1.2-3.3V7.1H63.1L63.1,7.1L63.1,7.1z"/>
		<path id="Fill-14" class="st3" d="M100.6,14.8c0-3-1.6-6-4.9-6c-2.9,0-4.7,2.3-4.7,5.1c0,2.9,1.7,5.9,4.9,5.9
			C98.6,19.8,100.6,17.6,100.6,14.8L100.6,14.8L100.6,14.8z M87.7,14.4c0-4.7,3.8-7.7,8.2-7.7c2,0,3.7,0.5,5.2,1.8
			c1.6,1.4,2.5,3.4,2.5,5.6c0,4.5-3.7,7.7-8.1,7.7C91.3,21.8,87.7,18.8,87.7,14.4L87.7,14.4L87.7,14.4z"/>
		<path id="Fill-16" class="st3" d="M116.8,7.1c0.8,0,1.8,0.1,2.3-0.4h0.1V18c0,1.4-0.2,2.6,1.2,3.3v0.1h-4v-2
			c-1.1,1.7-2.3,2.4-4.5,2.4c-3.7,0-5.4-2.1-5.4-6.5v-4.8c0-1.4,0.2-2.6-1.2-3.4V7.1h2c0.7,0,1.5,0,1.9-0.4h0.1v8.1
			c0,2.9,0.8,4.6,3.5,4.6c2.1,0,3.5-1.7,3.5-4.1v-4.8c0-1.5,0.2-2.6-1.2-3.4V7.1L116.8,7.1L116.8,7.1L116.8,7.1z"/>
		<path id="Fill-18" class="st3" d="M123.9,7.1c0.7,0,1.4,0,2.1-0.4h0.1v2.4c1.1-1.5,2.4-2.4,4.4-2.4c1.7,0,3.7,0.7,4.7,2.1
			c0.9,1.2,0.8,3.2,0.8,4.6V18c0,1.4-0.2,2.5,1.2,3.3v0.1h-5.2v-0.1c1.4-0.8,1.2-1.9,1.2-3.3v-4.2c0-3.3-0.9-5-3.8-5
			c-2.8,0-3.3,1.9-3.3,3.7V18c0,1.4-0.2,2.5,1.2,3.3v0.1H122v-0.1c1.4-0.8,1.2-1.9,1.2-3.4v-7.4c0-1.4,0.2-2.6-1.2-3.4V7.1H123.9
			L123.9,7.1z"/>
		<path id="Fill-20" class="st3" d="M142.8,15.4c0,1.2-0.4,4.4,2.9,4.4c0.4,0,0.8-0.2,1.2-0.3l-1.6,2.2c-0.3,0.1-0.7,0.2-1,0.2
			c-4.8,0-4.4-5-4.4-6.2V9.2h-2.1V8.1c2.9-0.5,3.7-2.7,3.7-5.6h1.2v4.6h2.9c0.4,0,0.9,0,1.2-0.2h0.1v2.8h-0.1
			c-0.5-0.7-1.4-0.6-2.2-0.6h-1.9V15.4L142.8,15.4L142.8,15.4z"/>
		<path id="Fill-22" class="st3" d="M161.1,21.8c-2-0.1-4.1-0.7-4.1-3.2v-4.9c-0.9,0.5-2,0.7-3,1c-1.5,0.3-3.2,0.7-3.2,2.6
			c0,1.9,1.7,2.6,3.4,2.6c0.7,0,1.5-0.2,2.2-0.4l-1.8,2.3c-0.5,0.1-1.1,0.2-1.6,0.2c-3.1,0-5.3-2-5.3-4.6c0-5.8,9.3-3.1,9.3-6.5
			c0-1.5-1.8-2-3-2c-1.6,0-2.8,0.6-4.2,1.2l2.1-3.1l2-0.2c3.4,0,5.9,1,5.9,4.7v4.7c0,2.5,0.1,3.4,2.6,3.7L161.1,21.8L161.1,21.8
			L161.1,21.8z"/>
		<path id="Fill-24" class="st3" d="M165.7,5.3c-1.2,0-2-0.9-2-2c0-1.1,1-1.8,2-1.8c1.1,0,1.9,0.9,1.9,1.9
			C167.5,4.4,166.7,5.3,165.7,5.3L165.7,5.3L165.7,5.3z M165.1,7.1c0.7,0,1.5,0,2-0.5h0.1V18c0,1.4-0.2,2.6,1.2,3.4v0.1h-5.2v-0.1
			c1.4-0.8,1.2-1.9,1.2-3.4v-7.4c0-1.4,0.2-2.5-1.2-3.3V7.1H165.1L165.1,7.1L165.1,7.1z"/>
		<path id="Fill-26" class="st3" d="M172.3,7.1c0.7,0,1.4,0,2.1-0.4h0.1v2.4c1.1-1.5,2.4-2.4,4.4-2.4c1.7,0,3.7,0.7,4.7,2.1
			c0.9,1.2,0.8,3.2,0.8,4.6V18c0,1.4-0.2,2.5,1.2,3.3v0.1h-5.2v-0.1c1.4-0.8,1.2-1.9,1.2-3.3v-4.2c0-3.3-0.9-5-3.8-5
			c-2.8,0-3.3,1.9-3.3,3.7V18c0,1.4-0.2,2.5,1.2,3.3v0.1h-5.2v-0.1c1.4-0.8,1.2-1.9,1.2-3.4v-7.4c0-1.4,0.2-2.6-1.2-3.4V7.1
			L172.3,7.1L172.3,7.1L172.3,7.1z"/>
		<g id="Group-30" transform="translate(188.000000, 4.584800)">
			<g id="Fill-28-Clipped">
				<g id="path-3_1_">
				</g>
				<defs>
					<filter id="Adobe_OpacityMaskFilter_1_" filterUnits="userSpaceOnUse" x="0" y="0.9" width="9" height="9">
						<feColorMatrix  type="matrix" values="1 0 0 0 0  0 1 0 0 0  0 0 1 0 0  0 0 0 1 0"/>
					</filter>
				</defs>
				<mask maskUnits="userSpaceOnUse" x="0" y="0.9" width="9" height="9" id="mask-4">
					<g class="st4">
						<polygon id="path-3" class="st1" points="9,9.9 9,0.9 0,0.9 0,9.9 						"/>
					</g>
				</mask>
				<path id="Fill-28" class="st5" d="M3.7,5h0.8c0.6,0,1-0.1,1-0.8c0-0.6-0.6-0.7-1-0.7H3.7V5L3.7,5L3.7,5z M2.8,2.9h1.9
					c1.2,0,1.9,0.4,1.9,1.5c0,0.9-0.5,1.3-1.3,1.4l1.4,2.2h-1L4.3,5.8H3.7v2.2H2.8V2.9L2.8,2.9L2.8,2.9z M7.9,5.4
					c0-2.1-1.5-3.6-3.4-3.6S1.1,3.3,1.1,5.4C1.1,7.5,2.6,9,4.5,9S7.9,7.5,7.9,5.4L7.9,5.4L7.9,5.4z M0,5.4C0,3,2,0.9,4.5,0.9
					C7,0.9,9,3,9,5.4c0,2.5-2,4.5-4.5,4.5C2,9.9,0,7.9,0,5.4L0,5.4L0,5.4z"/>
			</g>
		</g>
	</g>
</g>
</svg>
