<?xml version="1.0" encoding="UTF-8" standalone="no"?>
<svg width="197px" height="21px" viewBox="0 0 197 21" version="1.1" xmlns="http://www.w3.org/2000/svg" xmlns:xlink="http://www.w3.org/1999/xlink">
    <!-- Generator: Sketch 39.1 (31720) - http://www.bohemiancoding.com/sketch -->
    <title>Group 28</title>
    <desc>Created with Sketch.</desc>
    <defs>
        <polygon id="path-1" points="6.0504 0.415 0.1534 0.415 0.1534 20.8427 6.0504 20.8427 6.0504 0.415"></polygon>
        <polygon id="path-3" points="8.97075 9.906875 8.97075 0.947375 0.00765 0.947375 0.00765 9.906875 8.97075 9.906875"></polygon>
    </defs>
    <g id="Hero" stroke="none" stroke-width="1" fill="none" fill-rule="evenodd">
        <g id="Group-28" transform="translate(0.000000, -1.000000)">
            <g id="Group-3" transform="translate(0.000000, 0.584800)">
                <mask id="mask-2" fill="white">
                    <use xlink:href="#path-1"></use>
                </mask>
                <g id="Clip-2"></g>
                <path d="M1.5154,4.7927 C1.5154,3.3617 1.7344,1.0967 0.1534,0.5067 L0.1534,0.4147 L6.0504,0.4147 L6.0504,0.5067 C4.4954,1.0957 4.6824,3.3957 4.6824,4.7927 L4.6824,16.4907 C4.6824,17.8907 4.4944,20.1577 6.0474,20.7487 L6.0474,20.8427 L0.1534,20.8427 L0.1534,20.7487 C1.7014,20.1927 1.5144,17.8907 1.5144,16.4907 L1.5144,4.7927 L1.5154,4.7927 Z" id="Fill-1" fill="#FFFFFF" mask="url(#mask-2)"></path>
            </g>
            <path d="M9.7756,7.1461 C10.4586,7.1461 11.1986,7.1131 11.8556,6.7411 L11.9486,6.7411 L11.9486,9.1331 C13.0356,7.6411 14.3036,6.7431 16.3256,6.7431 C18.0606,6.7431 20.0496,7.4281 21.0436,8.8871 C21.9126,10.1281 21.8206,12.0511 21.8206,13.5061 L21.8206,18.0141 C21.8206,19.4381 21.6326,20.5541 22.9986,21.3341 L22.9986,21.4281 L17.8136,21.4281 L17.8136,21.3341 C19.1836,20.5541 18.9966,19.4081 18.9966,18.0141 L18.9966,13.8251 C18.9966,10.4981 18.0616,8.7911 15.2366,8.7911 C12.4136,8.7911 11.9486,10.6851 11.9486,12.5171 L11.9486,18.0141 C11.9486,19.4381 11.7586,20.5541 13.1266,21.3341 L13.1266,21.4281 L7.9396,21.4281 L7.9396,21.3341 C9.3086,20.5541 9.1206,19.4081 9.1206,17.9841 L9.1206,10.5921 C9.1206,9.1641 9.3086,8.0181 7.9396,7.2401 L7.9396,7.1461 L9.7746,7.1461 L9.7756,7.1461 Z" id="Fill-4" fill="#FFFFFF"></path>
            <path d="M28.2475,15.4029 C28.2475,16.5819 27.8715,19.7849 31.1885,19.7849 C31.6265,19.7849 32.0315,19.6269 32.4325,19.4709 L30.7885,21.6709 C30.4785,21.7679 30.1385,21.8279 29.7925,21.8279 C24.9865,21.8279 25.4145,16.8689 25.4145,15.6539 L25.4145,9.1929 L23.3085,9.1929 L23.3085,8.0809 C26.2265,7.5809 27.0025,5.4129 27.0025,2.5179 L28.2465,2.5179 L28.2465,7.1469 L31.1605,7.1469 C31.5625,7.1469 32.0295,7.1469 32.3425,6.9629 L32.4325,6.9629 L32.4325,9.7879 L32.3425,9.7879 C31.8425,9.1339 30.9085,9.1939 30.1085,9.1939 L28.2475,9.1939 L28.2475,15.4039 L28.2475,15.4029 Z" id="Fill-6" fill="#FFFFFF"></path>
            <path d="M44.974,11.9878 C44.631,9.8178 43.207,8.7888 40.97,8.7888 C38.889,8.7888 37.338,10.0308 36.964,11.9878 L44.974,11.9878 Z M36.844,13.7888 C36.905,17.5758 39.541,19.7848 43.049,19.7848 C44.913,19.7848 46.711,19.2518 48.142,18.1348 L48.236,18.1348 L46.683,21.0498 C45.347,21.6108 43.862,21.8258 42.401,21.8258 C37.123,21.8258 33.489,18.5098 33.489,14.1908 C33.489,9.8808 36.626,6.7418 41.254,6.7418 C45.477,6.7418 48.36,9.7858 48.238,13.7878 L36.844,13.7878 L36.844,13.7888 Z" id="Fill-8" fill="#FFFFFF"></path>
            <path d="M52.0177,7.1461 C52.7347,7.1461 53.4827,7.1131 53.9157,6.7411 L54.0087,6.7411 L54.0087,9.1041 C54.6917,7.7011 56.1157,6.7411 57.6707,6.7411 L58.7837,6.8341 L58.7837,9.6911 C58.4447,9.3191 57.8877,9.1931 57.3607,9.1931 C55.0027,9.1931 54.0087,10.4361 54.0087,13.6321 L54.0087,17.9821 C54.0087,19.4071 53.8227,20.5541 55.1847,21.3331 L55.1847,21.4271 L49.9997,21.4271 L49.9997,21.3331 C51.3707,20.5531 51.1817,19.4071 51.1817,17.9821 L51.1817,10.5611 C51.1817,9.1341 51.3707,8.0201 50.0317,7.2411 L50.0317,7.1471 L52.0167,7.1471 L52.0177,7.1461 Z" id="Fill-10" fill="#FFFFFF"></path>
            <path d="M63.067,7.1461 C63.748,7.1461 64.493,7.1131 64.991,6.7411 L65.084,6.7411 L65.084,9.1931 C66.17,7.5171 67.382,6.7431 69.457,6.7431 C71.664,6.7431 73.155,7.6081 74.302,9.4421 C75.515,7.7661 76.97,6.7431 79.269,6.7431 C83.676,6.7431 84.824,9.2651 84.824,13.2031 L84.824,17.9841 C84.824,19.3181 84.64,20.8401 86.19,21.3351 L86.19,21.4281 L80.821,21.4281 L80.821,21.3351 C82.187,20.5541 82.003,19.4081 82.003,17.9841 L82.003,13.9801 C82.003,10.8121 81.001,8.7911 78.524,8.7911 C75.724,8.7911 74.953,10.5621 74.953,13.4811 L74.953,17.9841 C74.953,19.4081 74.765,20.5561 76.133,21.3351 L76.133,21.4281 L70.946,21.4281 L70.946,21.3351 C72.314,20.5541 72.128,19.4081 72.128,17.9841 L72.128,13.6961 C72.128,10.4361 70.514,8.7911 68.592,8.7911 C66.229,8.7911 65.081,10.2531 65.081,13.2331 L65.081,17.9841 C65.081,19.4081 64.896,20.5261 66.229,21.3341 L66.229,21.4281 L61.079,21.4281 L61.079,21.3341 C62.444,20.5541 62.255,19.4081 62.255,17.9841 L62.255,10.5601 C62.255,9.1331 62.444,8.0201 61.079,7.2401 L61.079,7.1461 L63.066,7.1461 L63.067,7.1461 Z" id="Fill-12" fill="#FFFFFF"></path>
            <path d="M100.5631,14.7817 C100.5631,11.7707 98.9511,8.7887 95.6281,8.7887 C92.7401,8.7887 90.8801,11.0657 90.8801,13.8507 C90.8801,16.7027 92.5881,19.7847 95.7541,19.7847 C98.6071,19.7847 100.5631,17.5767 100.5631,14.7817 L100.5631,14.7817 Z M87.7441,14.4097 C87.7441,9.7567 91.4981,6.7417 95.9721,6.7417 C97.9521,6.7417 99.6631,7.2707 101.1511,8.5787 C102.7391,9.9677 103.6991,12.0207 103.6991,14.1317 C103.6991,18.6007 99.9701,21.8257 95.5981,21.8257 C91.3461,21.8257 87.7441,18.8197 87.7441,14.4087 L87.7441,14.4097 Z" id="Fill-14" fill="#FFFFFF"></path>
            <path d="M116.8042,7.1461 C117.6092,7.1461 118.5712,7.2701 119.1302,6.7411 L119.2212,6.7411 L119.2212,18.0411 C119.2212,19.4701 119.0372,20.6211 120.4012,21.3331 L120.4012,21.4251 L116.3992,21.4251 L116.3992,19.4041 C115.2772,21.1121 114.1002,21.8231 111.9282,21.8231 C108.2652,21.8231 106.5272,19.7461 106.5272,15.3711 L106.5272,10.5931 C106.5272,9.1661 106.7052,8.0201 105.3472,7.2421 L105.3472,7.1471 L107.3652,7.1471 C108.0492,7.1471 108.8212,7.1151 109.2612,6.7431 L109.3522,6.7431 L109.3522,14.8441 C109.3522,17.7021 110.1592,19.4721 112.8582,19.4721 C114.9092,19.4721 116.4002,17.7971 116.4002,15.4031 L116.4002,10.6241 C116.4002,9.1671 116.5862,8.0461 115.2152,7.2421 L115.2152,7.1481 L116.8032,7.1481 L116.8042,7.1461 Z" id="Fill-16" fill="#FFFFFF"></path>
            <path d="M123.876,7.1461 C124.559,7.1461 125.305,7.1131 125.959,6.7411 L126.051,6.7411 L126.051,9.1331 C127.138,7.6411 128.411,6.7431 130.43,6.7431 C132.163,6.7431 134.156,7.4281 135.146,8.8841 C136.013,10.1271 135.925,12.0511 135.925,13.5061 L135.925,18.0141 C135.925,19.4381 135.738,20.5541 137.104,21.3351 L137.104,21.4281 L131.925,21.4281 L131.925,21.3351 C133.288,20.5541 133.099,19.4081 133.099,18.0141 L133.099,13.8251 C133.099,10.4981 132.164,8.7881 129.341,8.7881 C126.516,8.7881 126.052,10.6851 126.052,12.5181 L126.052,18.0141 C126.052,19.4391 125.868,20.5541 127.232,21.3361 L127.232,21.4291 L122.047,21.4291 L122.047,21.3361 C123.411,20.5541 123.232,19.4091 123.232,17.9841 L123.232,10.5921 C123.232,9.1651 123.412,8.0191 122.047,7.2371 L122.047,7.1461 L123.876,7.1461 Z" id="Fill-18" fill="#FFFFFF"></path>
            <path d="M142.7834,15.4029 C142.7834,16.5819 142.4114,19.7849 145.7304,19.7849 C146.1634,19.7849 146.5694,19.6269 146.9714,19.4709 L145.3254,21.6709 C145.0184,21.7679 144.6744,21.8279 144.3384,21.8279 C139.5234,21.8279 139.9564,16.8689 139.9564,15.6539 L139.9564,9.1929 L137.8484,9.1929 L137.8484,8.0809 C140.7664,7.5809 141.5414,5.4129 141.5414,2.5179 L142.7834,2.5179 L142.7834,7.1469 L145.7004,7.1469 C146.1024,7.1469 146.5684,7.1469 146.8804,6.9629 L146.9714,6.9629 L146.9714,9.7879 L146.8804,9.7879 C146.3854,9.1339 145.4514,9.1939 144.6444,9.1939 L142.7834,9.1939 L142.7834,15.4039 L142.7834,15.4029 Z" id="Fill-20" fill="#FFFFFF"></path>
            <path d="M161.0976,21.8269 C159.0496,21.7069 156.9946,21.0859 156.9946,18.6029 L156.9946,13.6969 C156.0976,14.1599 155.0426,14.4119 154.0226,14.6609 C152.5286,15.0039 150.8536,15.3439 150.8536,17.2359 C150.8536,19.1659 152.5916,19.7869 154.2366,19.7869 C154.9836,19.7869 155.7276,19.5649 156.4706,19.3469 L154.6426,21.6729 C154.1116,21.7689 153.5526,21.8279 153.0306,21.8279 C149.8896,21.8279 147.7216,19.8459 147.7216,17.2679 C147.7216,11.4969 156.9956,14.1609 156.9956,10.7819 C156.9956,9.2919 155.1706,8.7889 154.0236,8.7889 C152.4406,8.7889 151.1996,9.3809 149.8026,10.0329 L151.8766,6.9289 L153.8966,6.7439 C157.2486,6.7439 159.7976,7.7049 159.8276,11.4619 L159.8276,16.1159 C159.8276,18.5699 159.8916,19.4979 162.4646,19.7849 L161.0966,21.8259 L161.0976,21.8269 Z" id="Fill-22" fill="#FFFFFF"></path>
            <path d="M165.6615,5.2819 C164.5095,5.2819 163.6435,4.3809 163.6435,3.2339 C163.6435,2.1459 164.6355,1.4009 165.6615,1.4009 C166.7125,1.4009 167.5245,2.3069 167.5245,3.3299 C167.5245,4.3559 166.7125,5.2819 165.6615,5.2819 L165.6615,5.2819 Z M165.0695,7.1459 C165.7875,7.1459 166.5595,7.1129 167.0905,6.6469 L167.1815,6.6469 L167.1815,17.9819 C167.1815,19.4059 166.9935,20.5539 168.3615,21.3329 L168.3615,21.4259 L163.1775,21.4259 L163.1775,21.3329 C164.5425,20.5519 164.3545,19.4059 164.3545,17.9819 L164.3545,10.5609 C164.3545,9.1329 164.5425,8.0199 163.1775,7.2379 L163.1775,7.1459 L165.0685,7.1459 L165.0695,7.1459 Z" id="Fill-24" fill="#FFFFFF"></path>
            <path d="M172.2998,7.1461 C172.9808,7.1461 173.7268,7.1131 174.3808,6.7411 L174.4738,6.7411 L174.4738,9.1331 C175.5608,7.6411 176.8328,6.7431 178.8498,6.7431 C180.5898,6.7431 182.5748,7.4281 183.5708,8.8841 C184.4408,10.1271 184.3448,12.0511 184.3448,13.5061 L184.3448,18.0141 C184.3448,19.4381 184.1618,20.5541 185.5248,21.3351 L185.5248,21.4281 L180.3458,21.4281 L180.3458,21.3351 C181.7088,20.5541 181.5208,19.4081 181.5208,18.0141 L181.5208,13.8231 C181.5208,10.4981 180.5898,8.7881 177.7658,8.7881 C174.9378,8.7881 174.4748,10.6851 174.4748,12.5181 L174.4748,18.0141 C174.4748,19.4391 174.2898,20.5541 175.6578,21.3361 L175.6578,21.4291 L170.4748,21.4291 L170.4748,21.3361 C171.8358,20.5541 171.6508,19.4091 171.6508,17.9841 L171.6508,10.5921 C171.6508,9.1651 171.8348,8.0191 170.4748,7.2381 L170.4748,7.1471 L172.3008,7.1471 L172.2998,7.1461 Z" id="Fill-26" fill="#FFFFFF"></path>
            <g id="Group-30" transform="translate(188.000000, 4.584800)">
                <mask id="mask-4" fill="white">
                    <use xlink:href="#path-3"></use>
                </mask>
                <g id="Clip-29"></g>
                <path d="M3.70215,5.042375 L4.53915,5.042375 C5.0994,5.042375 5.58765,4.963625 5.58765,4.279625 C5.58765,3.683375 5.0364,3.586625 4.55265,3.586625 L3.70215,3.586625 L3.70215,5.044625 L3.70215,5.042375 Z M2.76165,2.866625 L4.6539,2.866625 C5.87115,2.866625 6.53265,3.291875 6.53265,4.358375 C6.53265,5.229125 6.03315,5.654375 5.20065,5.724125 L6.56415,7.947125 L5.60115,7.947125 L4.2804,5.760125 L3.70215,5.760125 L3.70215,7.947125 L2.76165,7.947125 L2.76165,2.866625 L2.76165,2.866625 Z M7.8804,5.427125 C7.8804,3.327875 6.36615,1.811375 4.4919,1.811375 C2.61765,1.811375 1.1034,3.327875 1.1034,5.427125 C1.1034,7.528625 2.61765,9.042875 4.4919,9.042875 C6.36615,9.042875 7.8804,7.528625 7.8804,5.427125 L7.8804,5.427125 Z M0.00765,5.427125 C0.00765,2.958875 2.0214,0.947375 4.4919,0.947375 C6.9579,0.947375 8.97165,2.961125 8.97165,5.427125 C8.97165,7.895375 6.95565,9.906875 4.4919,9.906875 C2.0214,9.906875 0.00765,7.895375 0.00765,5.427125 L0.00765,5.427125 Z" id="Fill-28" fill="#FFFFFF" mask="url(#mask-4)"></path>
            </g>
        </g>
    </g>
</svg>