<?xml version="1.0" encoding="UTF-8" standalone="no"?>
<svg width="42px" height="30px" viewBox="0 0 42 30" version="1.1" xmlns="http://www.w3.org/2000/svg" xmlns:xlink="http://www.w3.org/1999/xlink">
    <!-- Generator: Sketch 39.1 (31720) - http://www.bohemiancoding.com/sketch -->
    <title>Group 33</title>
    <desc>Created with Sketch.</desc>
    <defs>
        <polygon id="path-1" points="2.71050543e-20 0.5977 2.71050543e-20 29.3377 41.4498 29.3377 41.4498 0.5977 0 0.5977"></polygon>
    </defs>
    <g id="Hero" stroke="none" stroke-width="1" fill="none" fill-rule="evenodd">
        <g id="Group-33">
            <mask id="mask-2" fill="white">
                <use xlink:href="#path-1"></use>
            </mask>
            <g id="Clip-32"></g>
            <path d="M30.2058,20.7127 L30.3498,20.7957 C30.3768,20.7957 30.3978,20.7887 30.4118,20.7747 L41.3058,14.8947 L41.3468,14.8947 C41.4158,14.8257 41.4498,14.7507 41.4498,14.6677 C41.4498,14.4747 41.3738,14.3787 41.2228,14.3787 L37.4668,14.6057 C37.4258,14.6057 37.3708,14.5437 37.3018,14.4197 L37.3428,14.4197 C37.2878,14.4057 37.2598,14.3227 37.2598,14.1707 L39.0758,8.8887 C39.0758,8.6277 39.0068,8.4967 38.8698,8.4967 C38.8138,8.4967 38.7658,8.5317 38.7258,8.5997 L38.6848,8.5997 L38.6848,8.6407 L30.2048,20.3817 C30.1908,20.4497 30.1838,20.5117 30.1838,20.5677 C30.1838,20.6227 30.1908,20.6707 30.2048,20.7117 L30.2058,20.7127 Z M23.3568,26.0987 C23.3568,26.2777 23.3978,26.3877 23.4808,26.4287 C23.5488,26.4707 23.6048,26.4907 23.6458,26.4907 C23.7148,26.4907 23.7628,26.4567 23.7898,26.3877 L34.7668,11.2647 L34.8078,11.2237 C34.8628,11.0037 34.8218,10.8457 34.6838,10.7497 C34.5738,10.7087 34.4768,10.7087 34.3948,10.7497 L29.8138,13.3697 C29.7038,13.3697 29.6068,13.3557 29.5248,13.3287 C29.4148,13.2187 29.3598,13.1217 29.3598,13.0397 L30.1228,0.9487 C30.1228,0.8247 30.0678,0.7287 29.9578,0.6597 C29.8888,0.6187 29.8338,0.5977 29.7928,0.5977 C29.6968,0.5977 29.6208,0.6597 29.5658,0.7837 L29.5658,0.8677 L23.3568,26.0987 Z M18.9198,4.6197 C18.9198,5.1707 19.1058,5.6307 19.4768,6.0027 C19.8488,6.3737 20.3088,6.5597 20.8598,6.5597 C21.4098,6.5597 21.8708,6.3737 22.2418,6.0027 C22.6138,5.6307 22.7988,5.1707 22.7988,4.6197 C22.7988,4.0697 22.6138,3.6087 22.2418,3.2377 C21.8708,2.8657 21.4098,2.6807 20.8598,2.6807 C20.3088,2.6807 19.8488,2.8657 19.4768,3.2377 C19.1058,3.6087 18.9198,4.0697 18.9198,4.6197 L18.9198,4.6197 Z M15.2888,4.8667 L15.3298,4.8667 L15.3298,4.9287 L20.4868,29.0487 C20.5558,29.2417 20.6798,29.3377 20.8578,29.3377 C21.0638,29.3377 21.1808,29.2417 21.2098,29.0487 L26.3478,4.9287 L26.3478,4.8667 C26.3478,4.7427 26.3098,4.6297 26.2338,4.5267 C26.1578,4.4237 26.0578,4.3717 25.9338,4.3717 C25.8238,4.3717 25.7138,4.4547 25.6038,4.6197 L21.2508,10.9547 C21.0988,11.1057 20.9678,11.1817 20.8578,11.1817 C20.7208,11.1817 20.5968,11.1057 20.4868,10.9547 L20.4458,10.9547 L16.1338,4.6197 C16.0648,4.4547 15.9478,4.3717 15.7818,4.3717 C15.6448,4.3717 15.5278,4.4237 15.4308,4.5267 C15.3338,4.6297 15.2858,4.7427 15.2868,4.8667 L15.2888,4.8667 Z M6.6428,11.0577 C6.6428,11.0987 6.6638,11.1537 6.7058,11.2227 L6.7058,11.2637 L17.6618,26.3867 C17.7298,26.5387 17.8268,26.5517 17.9508,26.4277 C18.0328,26.3447 18.0748,26.2347 18.0748,26.0977 L11.8648,0.8647 L11.8648,0.7817 C11.7818,0.6717 11.6928,0.6167 11.5968,0.6167 C11.5688,0.6167 11.5138,0.6297 11.4318,0.6577 C11.3488,0.7397 11.3068,0.8367 11.3068,0.9467 L12.1118,13.0367 L12.0708,13.0367 C12.0708,13.1197 12.0158,13.2157 11.9058,13.3257 C11.8228,13.3537 11.7258,13.3667 11.6158,13.3667 L7.0978,10.7467 C6.8918,10.6507 6.7468,10.7197 6.6648,10.9527 C6.6508,10.9667 6.6428,11.0017 6.6428,11.0557 L6.6428,11.0577 Z M-0.0002,14.6677 C-0.0002,14.7637 0.0278,14.8397 0.0828,14.8947 L11.0178,20.7747 C11.0868,20.8017 11.1558,20.7817 11.2238,20.7127 C11.2658,20.5617 11.2658,20.4517 11.2238,20.3827 L2.7438,8.6427 L2.7028,8.6017 C2.6618,8.5457 2.6068,8.5177 2.5378,8.5177 C2.4688,8.5327 2.4178,8.5767 2.3838,8.6527 C2.3488,8.7287 2.3528,8.8077 2.3938,8.8907 L4.2098,14.1727 C4.2098,14.4607 4.1268,14.6057 3.9618,14.6057 L0.2058,14.3787 C0.1098,14.3787 0.0548,14.4197 0.0408,14.5027 C0.0138,14.5857 -0.0002,14.6407 -0.0002,14.6677 L-0.0002,14.6677 Z" id="Fill-31" fill="#FFFFFF" mask="url(#mask-2)"></path>
        </g>
    </g>
</svg>