<?xml version="1.0" encoding="utf-8"?>
<!-- Generator: Adobe Illustrator 21.0.0, SVG Export Plug-In . SVG Version: 6.00 Build 0)  -->
<svg version="1.1" id="Layer_1" xmlns="http://www.w3.org/2000/svg" xmlns:xlink="http://www.w3.org/1999/xlink" x="0px" y="0px"
	 viewBox="0 0 50 35" style="enable-background:new 0 0 50 35;" xml:space="preserve">
<style type="text/css">
	.st0{fill:#004499;}
	.st1{fill:#3388DD;}
	.st2{fill:#88BB00;}
</style>
<g>
	<g>
		<ellipse class="st0" cx="25.2" cy="5.2" rx="2.3" ry="2.3"/>
		<path class="st0" d="M25.1,34.6c0.2,0,0.4-0.1,0.5-0.4l6.1-28.8l0,0l0-0.1c0-0.3-0.2-0.5-0.5-0.5c-0.2,0-0.3,0.1-0.4,0.3l-5.2,7.6
			l0,0c-0.1,0.1-0.3,0.2-0.5,0.2h0c-0.2,0-0.4-0.1-0.5-0.2l0,0l-5.1-7.6c-0.1-0.2-0.2-0.3-0.4-0.3c-0.3,0-0.5,0.2-0.5,0.5l0,0.1v0
			l6.1,28.8C24.8,34.5,24.9,34.6,25.1,34.6L25.1,34.6z"/>
	</g>
	<g>
		<path class="st1" d="M28.3,31.2c0.1,0.1,0.3,0,0.4-0.1l13-18l0,0l0,0c0.1-0.2,0-0.5-0.1-0.6c-0.1-0.1-0.2-0.1-0.3,0l-5.4,3.1l0,0
			c-0.1,0-0.2,0-0.4,0l0,0c-0.1-0.1-0.2-0.2-0.2-0.3l0,0l0.9-14.4c0-0.1-0.1-0.3-0.2-0.3c-0.2-0.1-0.4,0-0.5,0.2l0,0l0,0l-7.4,30.1
			C28.1,30.9,28.2,31.1,28.3,31.2L28.3,31.2z"/>
		<path class="st1" d="M21.7,31.2c-0.1,0.1-0.3,0-0.4-0.1l-13-18l0,0l0,0c-0.1-0.2,0-0.5,0.1-0.6c0.1-0.1,0.2-0.1,0.3,0l5.4,3.1l0,0
			c0.1,0,0.2,0,0.4,0l0,0c0.1-0.1,0.2-0.2,0.2-0.3l0,0L13.8,0.7c0-0.1,0.1-0.3,0.2-0.3c0.2-0.1,0.4,0,0.5,0.2l0,0l0,0l7.4,30.1
			C21.9,30.9,21.8,31.1,21.7,31.2L21.7,31.2z"/>
	</g>
	<g>
		<path class="st2" d="M36.3,24.3c0.1,0.1,0.2,0.1,0.3,0.1l13-7l0,0l0,0c0.1-0.1,0.1-0.3,0.1-0.4c-0.1-0.1-0.1-0.1-0.2-0.1L45,17
			l0,0c-0.1,0-0.2-0.1-0.2-0.1l0,0c-0.1-0.1-0.1-0.2,0-0.3l0,0l2.2-6.3c0-0.1,0-0.2,0-0.3c-0.1-0.1-0.2-0.2-0.4,0l0,0l0,0L36.3,24
			C36.3,24.1,36.2,24.2,36.3,24.3L36.3,24.3z"/>
		<path class="st2" d="M13.7,24.3c-0.1,0.1-0.2,0.1-0.3,0.1l-13-7l0,0l0,0c-0.1-0.1-0.2-0.3-0.1-0.4c0.1-0.1,0.1-0.1,0.2-0.1L5,17
			l0,0c0.1,0,0.2-0.1,0.2-0.1l0,0c0.1-0.1,0.1-0.2,0.1-0.3l0,0l-2.2-6.3c0-0.1,0-0.2,0-0.3c0.1-0.1,0.2-0.2,0.4,0l0,0l0,0L13.7,24
			C13.7,24.1,13.8,24.2,13.7,24.3L13.7,24.3z"/>
	</g>
</g>
</svg>
